<?xml version="1.0" encoding="UTF-8"?>
<svg width="135px" height="41px" viewBox="0 0 135 41" version="1.1" xmlns="http://www.w3.org/2000/svg" xmlns:xlink="http://www.w3.org/1999/xlink">
    <!-- Generator: Sketch 44.1 (41455) - http://www.bohemiancoding.com/sketch -->
    <title>Page 1</title>
    <desc>Created with Sketch.</desc>
    <defs>
        <polygon id="path-1" points="0 43 135 43 135 0.327 0 0.327"></polygon>
    </defs>
    <g id="Page-1" stroke="none" stroke-width="1" fill="none" fill-rule="evenodd">
        <g transform="translate(0.000000, -2.000000)">
            <g id="Group-28" transform="translate(0.000000, 0.672600)">
                <path d="M130,41.6692 L5,41.6692 C2.239,41.6692 0,39.4302 0,36.6692 L0,6.6692 C0,3.9072 2.239,1.6692 5,1.6692 L130,1.6692 C132.762,1.6692 135,3.9072 135,6.6692 L135,36.6692 C135,39.4302 132.762,41.6692 130,41.6692 Z" id="Fill-1" fill="#040000"></path>
                <path d="M130,1.6692 L5,1.6692 C2.239,1.6692 0,3.9072 0,6.6692 L0,36.6692 C0,39.4302 2.239,41.6692 5,41.6692 L130,41.6692 C132.762,41.6692 135,39.4302 135,36.6692 L135,6.6692 C135,3.9072 132.762,1.6692 130,1.6692 M130,2.4692 C132.319,2.4692 134.2,4.3492 134.2,6.6692 L134.2,36.6692 C134.2,38.9882 132.319,40.8692 130,40.8692 L5,40.8692 C2.68,40.8692 0.8,38.9882 0.8,36.6692 L0.8,6.6692 C0.8,4.3492 2.68,2.4692 5,2.4692 L130,2.4692" id="Fill-3" fill="#AFADA9"></path>
                <path d="M47.4199,11.9089 C47.4549,12.6499 47.1829,13.3729 46.6699,13.9089 C46.0969,14.5049 45.2959,14.8279 44.4699,14.7989 C42.7309,14.7849 41.3309,13.3639 41.3449,11.6239 C41.3509,10.8009 41.6799,10.0129 42.2599,9.4289 C42.8399,8.8359 43.6409,8.5109 44.4699,8.5289 C44.8929,8.5279 45.3109,8.6129 45.6999,8.7789 C46.0619,8.9249 46.3839,9.1549 46.6399,9.4489 L46.1099,9.9789 C45.7059,9.4979 45.0979,9.2349 44.4699,9.2689 C43.1889,9.2629 42.1449,10.2959 42.1389,11.5769 C42.1389,11.6079 42.1389,11.6379 42.1399,11.6689 C42.1219,12.9719 43.1639,14.0439 44.4669,14.0619 C45.0899,14.0709 45.6919,13.8319 46.1399,13.3989 C46.4479,13.0659 46.6249,12.6329 46.6399,12.1789 L44.4699,12.1789 L44.4699,11.4589 L47.3799,11.4589 C47.3929,11.6089 47.3929,11.7589 47.3799,11.9089" id="Fill-5" fill="#FFFFFF"></path>
                <path d="M47.4199,11.9089 L47.3199,11.9089 C47.3549,12.6239 47.0939,13.3219 46.5999,13.8389 C46.0449,14.4159 45.2699,14.7289 44.4699,14.6989 C42.7859,14.6859 41.4309,13.3099 41.4429,11.6259 C41.4489,10.8279 41.7679,10.0649 42.3299,9.4989 C42.8999,8.9419 43.6729,8.6419 44.4699,8.6689 C44.8789,8.6669 45.2839,8.7489 45.6599,8.9089 C46.0059,9.0489 46.3149,9.2679 46.5599,9.5489 L46.6399,9.4889 L46.5699,9.4189 L46.0399,9.9489 L46.1099,10.0189 L46.1899,9.9589 C45.7639,9.4559 45.1279,9.1799 44.4699,9.2089 C43.1339,9.1809 42.0279,10.2419 41.9999,11.5779 C41.9999,11.6089 41.9999,11.6389 41.9999,11.6689 C41.9769,13.0279 43.0599,14.1469 44.4179,14.1699 C45.0759,14.1809 45.7099,13.9289 46.1799,13.4689 C46.5029,13.1189 46.6909,12.6649 46.7099,12.1889 L46.7099,12.0789 L44.5699,12.0789 L44.5699,11.5589 L47.3799,11.5589 L47.3799,11.4589 L47.2799,11.4589 C47.2929,11.6049 47.2929,11.7529 47.2799,11.8989 L47.4799,11.8989 C47.4939,11.7419 47.4939,11.5849 47.4799,11.4289 L47.4799,11.3489 L44.3699,11.3489 L44.3699,12.2689 L46.6499,12.2689 L46.6499,12.1689 L46.5499,12.1689 C46.5359,12.5959 46.3689,13.0039 46.0799,13.3189 C45.1939,14.1689 43.7959,14.1689 42.9099,13.3189 C42.0259,12.3889 42.0259,10.9289 42.9099,9.9989 C43.3259,9.5829 43.8919,9.3519 44.4799,9.3589 C45.0809,9.3269 45.6619,9.5789 46.0499,10.0389 L46.1199,10.1189 L46.7199,9.5189 L46.7899,9.4589 L46.7299,9.3889 C46.4579,9.0789 46.1149,8.8389 45.7299,8.6889 C45.3289,8.5169 44.8969,8.4289 44.4599,8.4289 C42.6649,8.4439 41.2219,9.9099 41.2359,11.7049 C41.2429,12.5539 41.5819,13.3669 42.1799,13.9689 C42.7799,14.5779 43.6049,14.9149 44.4599,14.8989 C45.3159,14.9319 46.1469,14.5969 46.7399,13.9789 L46.6699,13.9089 L46.7399,13.9789 C47.2719,13.4249 47.5539,12.6769 47.5199,11.9089 L47.4199,11.9089" id="Fill-7" fill="#FFFFFF"></path>
                <polygon id="Fill-9" fill="#FFFFFF" points="52.0298 9.3992 49.2998 9.3992 49.2998 11.3092 51.7598 11.3092 51.7598 12.0292 49.2998 12.0292 49.2998 13.9292 52.0298 13.9292 52.0298 14.6692 48.5198 14.6692 48.5198 8.6692 52.0298 8.6692"></polygon>
                <polygon id="Fill-11" fill="#FFFFFF" points="52.0298 9.3992 52.0298 9.2992 49.1998 9.2992 49.1998 11.4092 51.6598 11.4092 51.6598 11.9292 49.1998 11.9292 49.1998 14.0292 51.9298 14.0292 51.9298 14.5692 48.6298 14.5692 48.6298 8.7692 51.9298 8.7692 51.9298 9.3992 52.0298 9.3992 52.0298 9.2992 52.0298 9.3992 52.1298 9.3992 52.1298 8.5692 48.4198 8.5692 48.4198 14.7692 52.1298 14.7692 52.1298 13.8292 49.3998 13.8292 49.3998 12.1292 51.8598 12.1292 51.8598 11.2092 49.3998 11.2092 49.3998 9.4992 52.1298 9.4992 52.1298 9.3992"></polygon>
                <polygon id="Fill-13" fill="#FFFFFF" points="55.2798 14.6692 54.5098 14.6692 54.5098 9.3992 52.8298 9.3992 52.8298 8.6692 56.9498 8.6692 56.9498 9.3992 55.2798 9.3992"></polygon>
                <polygon id="Fill-15" fill="#FFFFFF" points="55.2798 14.6692 55.2798 14.5692 54.6098 14.5692 54.6098 9.2992 52.9298 9.2992 52.9298 8.7692 56.8498 8.7692 56.8498 9.2992 55.1798 9.2992 55.1798 14.6692 55.2798 14.6692 55.2798 14.5692 55.2798 14.6692 55.3798 14.6692 55.3798 9.4992 57.0498 9.4992 57.0498 8.5692 52.7298 8.5692 52.7298 9.4992 54.4098 9.4992 54.4098 14.7692 55.3798 14.7692 55.3798 14.6692"></polygon>
                <mask id="mask-2" fill="white">
                    <use xlink:href="#path-1"></use>
                </mask>
                <g id="Clip-18"></g>
                <polygon id="Fill-17" fill="#FFFFFF" mask="url(#mask-2)" points="59.94 14.669 60.71 14.669 60.71 8.669 59.94 8.669"></polygon>
                <polygon id="Fill-19" fill="#FFFFFF" mask="url(#mask-2)" points="59.9399 14.6692 60.0399 14.6692 60.0399 8.7692 60.6099 8.7692 60.6099 14.5692 59.9399 14.5692 59.9399 14.6692 60.0399 14.6692 59.9399 14.6692 59.9399 14.7692 60.8099 14.7692 60.8099 8.5692 59.8399 8.5692 59.8399 14.7692 59.9399 14.7692"></polygon>
                <polygon id="Fill-20" fill="#FFFFFF" mask="url(#mask-2)" points="64.1299 14.6692 63.3599 14.6692 63.3599 9.3992 61.6799 9.3992 61.6799 8.6692 65.7999 8.6692 65.7999 9.3992 64.1299 9.3992"></polygon>
                <polygon id="Fill-21" fill="#FFFFFF" mask="url(#mask-2)" points="64.1299 14.6692 64.1299 14.5692 63.4599 14.5692 63.4599 9.2992 61.7799 9.2992 61.7799 8.7692 65.6999 8.7692 65.6999 9.2992 64.0299 9.2992 64.0299 14.6692 64.1299 14.6692 64.1299 14.5692 64.1299 14.6692 64.2299 14.6692 64.2299 9.4992 65.8999 9.4992 65.8999 8.5692 61.5799 8.5692 61.5799 9.4992 63.2599 9.4992 63.2599 14.7692 64.2299 14.7692 64.2299 14.6692"></polygon>
                <path d="M69.7803,13.3889 C70.6813,14.2859 72.1383,14.2859 73.0403,13.3889 C73.9253,12.4129 73.9253,10.9249 73.0403,9.9489 C72.1383,9.0519 70.6813,9.0519 69.7803,9.9489 C68.8943,10.9249 68.8943,12.4129 69.7803,13.3889 M73.6103,13.8889 C72.3923,15.0989 70.4263,15.0989 69.2103,13.8889 C68.0303,12.6399 68.0303,10.6879 69.2103,9.4389 C70.4243,8.2239 72.3933,8.2229 73.6083,9.4369 C73.6083,9.4379 73.6093,9.4379 73.6103,9.4389 C74.7953,10.6859 74.7953,12.6419 73.6103,13.8889" id="Fill-22" fill="#FFFFFF" mask="url(#mask-2)"></path>
                <path d="M69.7695,13.3992 L69.7005,13.4692 C70.6355,14.4082 72.1555,14.4102 73.0935,13.4752 L73.0995,13.4692 C74.0285,12.4562 74.0285,10.9022 73.0995,9.8892 C72.1605,8.9532 70.6405,8.9532 69.7005,9.8892 C68.7765,10.9032 68.7765,12.4542 69.7005,13.4692 L69.8395,13.3292 C68.9935,12.3922 68.9935,10.9662 69.8395,10.0292 C70.7025,9.1702 72.0975,9.1702 72.9595,10.0292 C73.8075,10.9662 73.8075,12.3922 72.9595,13.3292 C72.0975,14.1882 70.7025,14.1882 69.8395,13.3292 L69.7695,13.3992 Z M73.6105,13.8892 L73.5405,13.8192 C72.3735,14.9952 70.4735,15.0032 69.2975,13.8362 C69.2915,13.8312 69.2865,13.8252 69.2805,13.8192 C68.1385,12.6092 68.1385,10.7192 69.2805,9.5092 C70.4495,8.3352 72.3485,8.3322 73.5225,9.5022 C73.5255,9.5042 73.5275,9.5062 73.5305,9.5092 C74.6765,10.7172 74.6765,12.6112 73.5305,13.8192 L73.6695,13.9592 C74.8865,12.6742 74.8865,10.6632 73.6695,9.3792 C72.4245,8.1252 70.3985,8.1192 69.1445,9.3642 L69.1295,9.3792 C67.9125,10.6672 67.9125,12.6812 69.1295,13.9692 C70.3835,15.2232 72.4155,15.2232 73.6695,13.9692 L73.6695,13.9692 L73.5995,13.8992 L73.6105,13.8892 Z" id="Fill-23" fill="#FFFFFF" mask="url(#mask-2)"></path>
                <polygon id="Fill-24" fill="#FFFFFF" mask="url(#mask-2)" points="75.5801 14.6692 75.5801 8.6692 76.5101 8.6692 79.4301 13.3292 79.4601 13.3292 79.4301 12.1792 79.4301 8.6692 80.2001 8.6692 80.2001 14.6692 79.4001 14.6692 76.3501 9.7692 76.3091 9.7692 76.3501 10.9292 76.3501 14.6692"></polygon>
                <polygon id="Fill-25" fill="#FFFFFF" mask="url(#mask-2)" points="75.5801 14.6692 75.6701 14.6692 75.6701 8.7692 76.4601 8.7692 79.3701 13.4392 79.5701 13.4392 79.5301 12.1792 79.5301 8.7692 80.1001 8.7692 80.1001 14.5692 79.4501 14.5692 76.4001 9.6692 76.2101 9.6692 76.2501 10.9292 76.2501 14.5692 75.5801 14.5692 75.5801 14.6692 75.6701 14.6692 75.5801 14.6692 75.5801 14.7692 76.4501 14.7692 76.4501 10.9292 76.4101 9.7692 76.3091 9.7692 76.3091 9.8692 76.3501 9.8692 76.3501 9.7692 76.2601 9.8292 79.3401 14.7692 80.3001 14.7692 80.3001 8.5692 79.3301 8.5692 79.3301 12.1792 79.3601 13.3392 79.4601 13.3292 79.4601 13.2292 79.4301 13.2292 79.4301 13.3292 79.5191 13.2792 76.5701 8.5692 75.4701 8.5692 75.4701 14.7692 75.5801 14.7692"></polygon>
                <path d="M106.93,31.669 L108.8,31.669 L108.8,19.169 L106.93,19.169 L106.93,31.669 Z M123.74,23.669 L121.6,29.089 L121.54,29.089 L119.32,23.669 L117.32,23.669 L120.65,31.239 L118.75,35.449 L120.7,35.449 L125.82,23.669 L123.74,23.669 Z M113.12,30.219 C112.51,30.219 111.66,29.909 111.66,29.159 C111.66,28.159 112.72,27.829 113.66,27.829 C114.254,27.815 114.841,27.96 115.36,28.249 C115.23,29.372 114.29,30.227 113.16,30.249 L113.12,30.219 Z M113.34,23.369 C111.948,23.285 110.641,24.036 110.01,25.279 L111.67,25.969 C112.006,25.349 112.678,24.988 113.38,25.049 C114.367,24.934 115.262,25.641 115.377,26.628 C115.378,26.638 115.379,26.649 115.38,26.659 L115.38,26.789 C114.779,26.471 114.109,26.306 113.43,26.309 C111.65,26.309 109.83,27.309 109.83,29.119 C109.903,30.713 111.255,31.947 112.85,31.874 C112.876,31.872 112.903,31.871 112.93,31.869 C113.886,31.934 114.802,31.475 115.32,30.669 L115.38,30.669 L115.38,31.669 L117.18,31.669 L117.18,26.859 C117.18,24.669 115.53,23.399 113.39,23.399 L113.34,23.369 Z M101.81,25.169 L99.2,25.169 L99.2,20.909 L101.85,20.909 C103.032,20.909 103.99,21.867 103.99,23.049 C103.99,24.231 103.032,25.189 101.85,25.189 L101.81,25.169 Z M101.81,19.169 L97.34,19.169 L97.34,31.669 L99.2,31.669 L99.2,26.929 L101.81,26.929 C103.953,27.083 105.814,25.471 105.969,23.327 C106.123,21.185 104.511,19.323 102.367,19.169 C102.182,19.156 101.995,19.156 101.81,19.169 L101.81,19.169 Z M77.43,30.249 C76.005,30.123 74.952,28.866 75.077,27.442 C75.188,26.191 76.179,25.199 77.43,25.089 C78.754,25.156 79.771,26.285 79.704,27.609 C79.703,27.629 79.701,27.649 79.7,27.669 C79.812,28.979 78.841,30.131 77.531,30.242 C77.497,30.245 77.464,30.247 77.43,30.249 L77.43,30.249 Z M79.57,24.369 L79.5,24.369 C78.921,23.75 78.107,23.406 77.26,23.419 C74.91,23.532 73.098,25.531 73.211,27.88 C73.317,30.071 75.069,31.822 77.26,31.929 C78.118,31.944 78.938,31.577 79.5,30.929 L79.56,30.929 L79.56,31.539 C79.56,33.169 78.69,34.039 77.29,34.039 C76.336,34.017 75.491,33.42 75.15,32.529 L73.52,33.209 C74.147,34.736 75.64,35.729 77.29,35.719 C79.48,35.719 81.29,34.429 81.29,31.289 L81.29,23.669 L79.57,23.669 L79.57,24.369 Z M82.63,31.669 L84.5,31.669 L84.5,19.169 L82.63,19.169 L82.63,31.669 Z M87.25,27.549 C87.166,26.265 88.139,25.156 89.423,25.072 L89.47,25.069 C90.129,25.026 90.751,25.38 91.05,25.969 L87.25,27.549 Z M93.05,26.129 C92.516,24.558 91.068,23.48 89.41,23.419 C87.201,23.414 85.406,25.202 85.402,27.411 C85.402,27.497 85.404,27.583 85.41,27.669 C85.36,29.966 87.182,31.868 89.479,31.918 C89.529,31.919 89.579,31.92 89.63,31.919 C91.053,31.924 92.383,31.214 93.17,30.029 L91.72,29.029 C91.279,29.763 90.486,30.211 89.63,30.209 C88.743,30.242 87.927,29.731 87.57,28.919 L93.26,26.569 L93.05,26.129 Z M47.74,24.729 L47.74,26.529 L52.06,26.529 C51.992,27.377 51.64,28.177 51.06,28.799 C50.186,29.689 48.977,30.168 47.73,30.119 C45.079,30.119 42.93,27.97 42.93,25.319 C42.93,22.668 45.079,20.519 47.73,20.519 C48.948,20.499 50.124,20.963 51,21.809 L52.27,20.539 C51.074,19.33 49.44,18.656 47.74,18.669 C44.092,18.527 41.02,21.369 40.878,25.017 C40.736,28.664 43.578,31.737 47.226,31.879 C47.397,31.886 47.569,31.886 47.74,31.879 C49.472,31.957 51.153,31.282 52.35,30.029 C53.397,28.878 53.957,27.364 53.91,25.809 C53.914,25.43 53.88,25.051 53.81,24.679 L47.74,24.729 Z M58.82,30.249 C57.398,30.349 56.166,29.277 56.066,27.856 C55.967,26.434 57.039,25.201 58.46,25.102 C59.881,25.002 61.114,26.073 61.214,27.495 C61.218,27.553 61.22,27.611 61.22,27.669 C61.287,29.026 60.241,30.18 58.884,30.246 C58.862,30.247 58.841,30.248 58.82,30.249 L58.82,30.249 Z M58.82,23.419 C56.473,23.43 54.579,25.342 54.59,27.689 C54.601,30.036 56.513,31.93 58.86,31.919 C61.199,31.907 63.09,30.008 63.09,27.669 C63.124,25.355 61.275,23.452 58.961,23.418 C58.914,23.418 58.867,23.418 58.82,23.419 L58.82,23.419 Z M68.13,30.249 C66.708,30.343 65.479,29.267 65.386,27.845 C65.292,26.423 66.368,25.194 67.79,25.1 C69.212,25.006 70.44,26.083 70.534,27.504 C70.538,27.559 70.54,27.614 70.54,27.669 C70.606,29.026 69.561,30.18 68.204,30.246 L68.14,30.249 L68.13,30.249 Z M68.14,23.419 C65.793,23.424 63.895,25.331 63.9,27.679 C63.906,30.027 65.813,31.924 68.16,31.919 C70.503,31.913 72.4,30.012 72.4,27.669 C72.434,25.355 70.585,23.452 68.271,23.418 C68.225,23.418 68.177,23.418 68.13,23.419 L68.14,23.419 Z" id="Fill-26" fill="#FFFFFF" mask="url(#mask-2)"></path>
                <path d="M10.4302,9.219 C10.1022,9.627 9.9482,10.148 10.0002,10.669 L10.0002,32.669 C9.9702,33.177 10.1342,33.678 10.4602,34.069 L10.5302,34.139 L22.8902,21.819 L22.8902,21.529 L10.5102,9.139 L10.4402,9.209" id="Fill-27" fill="#69C7F2" mask="url(#mask-2)"></path>
            </g>
            <path d="M22.89,22.1816 L22.89,22.4916 L27,26.6116 L27.031,26.6116 L27.11,26.5716 L32,23.7916 C33.4,22.9916 33.4,21.6906 32,20.9016 L32,20.9016 L27,18.0726 L22.89,22.1816 Z" id="Fill-29" fill="#FDD329"></path>
            <path d="M10.43,34.7926 C11.019,35.3096 11.893,35.3336 12.51,34.8516 L12.51,34.8516 L27.11,26.5616 L22.89,22.3416 L10.43,34.7926 Z" id="Fill-31" fill="#E33541"></path>
            <path d="M10.43,9.8916 L22.89,22.3416 L27.11,18.1216 L12.51,9.8316 C12.215,9.6006 11.86,9.4856 11.507,9.4856 L11.507,9.4856 C11.121,9.4856 10.737,9.6216 10.43,9.8916" id="Fill-34" fill="#77BC5F"></path>
        </g>
    </g>
</svg>